<?xml version="1.0" encoding="utf-8"?>
<!-- Generator: Adobe Illustrator 16.0.3, SVG Export Plug-In . SVG Version: 6.00 Build 0)  -->
<!DOCTYPE svg PUBLIC "-//W3C//DTD SVG 1.1//EN" "http://www.w3.org/Graphics/SVG/1.1/DTD/svg11.dtd">
<svg version="1.1" id="Layer_1" xmlns="http://www.w3.org/2000/svg" xmlns:xlink="http://www.w3.org/1999/xlink" x="0px" y="0px"
	 width="57px" height="62px" viewBox="0 0 57 62" enable-background="new 0 0 57 62" xml:space="preserve">
<path fill="#1E1E1E" d="M28.498,62c-1.252,0-2.372-0.75-2.852-1.91l-2.488-6.024H9.587C4.301,54.065,0,49.75,0,44.445V9.621
	C0,4.316,4.301,0,9.587,0h37.824C52.698,0,57,4.316,57,9.621v34.824c0,5.305-4.302,9.62-9.589,9.62H33.839l-2.488,6.023
	C30.87,61.25,29.751,62,28.498,62z M9.587,2.997c-3.639,0-6.601,2.972-6.601,6.624v34.824c0,3.651,2.962,6.623,6.601,6.623h15.567
	l3.251,7.873c0.031,0.074,0.154,0.075,0.186-0.001l3.252-7.872h15.568c3.64,0,6.602-2.972,6.602-6.623V9.621
	c0-3.652-2.962-6.624-6.602-6.624H9.587z"/>
</svg>
