<?xml version="1.0" encoding="utf-8"?>
<!-- Generator: Adobe Illustrator 16.0.3, SVG Export Plug-In . SVG Version: 6.00 Build 0)  -->
<!DOCTYPE svg PUBLIC "-//W3C//DTD SVG 1.1//EN" "http://www.w3.org/Graphics/SVG/1.1/DTD/svg11.dtd">
<svg version="1.1" id="Layer_1" xmlns="http://www.w3.org/2000/svg" xmlns:xlink="http://www.w3.org/1999/xlink" x="0px" y="0px"
	 width="59px" height="59px" viewBox="0 0 59 59" enable-background="new 0 0 59 59" xml:space="preserve">
<g>
	<path fill="#1E1E1E" d="M29.499,59c-2.757,0-5.305-1.229-7.01-3.334c-1.031,0.399-2.108,0.602-3.216,0.602
		c-4.516,0-8.245-3.266-8.929-7.614c-2.675-0.423-5.014-2.016-6.393-4.403c-1.379-2.389-1.589-5.21-0.618-7.739
		C1.228,34.806-0.001,32.258,0,29.499c0-2.758,1.229-5.306,3.334-7.01c-0.972-2.529-0.762-5.351,0.618-7.739
		c1.379-2.388,3.717-3.98,6.393-4.403c0.684-4.349,4.413-7.614,8.929-7.614c1.107,0,2.185,0.202,3.216,0.602
		C24.194,1.229,26.742,0,29.499,0c2.758,0,5.307,1.229,7.011,3.334c1.031-0.399,2.108-0.602,3.216-0.602
		c4.516,0,8.245,3.266,8.929,7.614c2.675,0.423,5.014,2.015,6.393,4.403c1.38,2.389,1.589,5.21,0.618,7.739
		C57.771,24.193,59,26.741,59,29.499c0,2.759-1.229,5.308-3.335,7.012c0.972,2.529,0.762,5.351-0.618,7.739
		c-1.379,2.389-3.718,3.98-6.393,4.403c-0.684,4.349-4.413,7.614-8.929,7.614l0,0c-1.107,0-2.186-0.202-3.216-0.602
		C34.806,57.771,32.257,59,29.499,59z M23.354,52.431l0.623,0.993c1.198,1.915,3.263,3.059,5.521,3.059
		c2.26,0,4.324-1.144,5.523-3.059l0.622-0.993l1.034,0.549c0.963,0.512,1.988,0.771,3.047,0.771c3.094,0,6.378-2.354,6.52-6.293
		l0.041-1.172l1.172-0.041c2.257-0.08,4.279-1.297,5.408-3.253c1.131-1.957,1.173-4.316,0.113-6.313l-0.549-1.035l0.993-0.622
		c1.915-1.198,3.059-3.263,3.059-5.522c0-2.259-1.144-4.323-3.059-5.521l-0.993-0.622l0.549-1.035
		c1.06-1.996,1.018-4.355-0.113-6.313c-1.129-1.956-3.151-3.173-5.408-3.253l-1.172-0.041l-0.041-1.172
		c-0.142-3.939-3.426-6.293-6.52-6.293c-1.059,0-2.084,0.259-3.047,0.771l-1.034,0.549l-0.622-0.993
		c-1.199-1.915-3.264-3.059-5.523-3.059c-2.259,0-4.323,1.144-5.521,3.059l-0.623,0.993L22.32,6.021
		c-0.962-0.512-1.987-0.771-3.047-0.771c-3.094,0-6.378,2.354-6.519,6.293l-0.042,1.172l-1.171,0.041
		c-2.257,0.08-4.279,1.297-5.409,3.253c-1.13,1.957-1.172,4.316-0.113,6.313l0.55,1.035l-0.994,0.622
		c-1.915,1.197-3.058,3.262-3.058,5.521c0,2.26,1.143,4.324,3.058,5.522l0.994,0.622l-0.55,1.035
		c-1.059,1.996-1.017,4.355,0.113,6.313c1.13,1.956,3.152,3.173,5.409,3.253l1.171,0.041l0.042,1.172
		c0.141,3.939,3.425,6.293,6.519,6.293c1.06,0,2.085-0.259,3.047-0.771L23.354,52.431z"/>
	<path fill="#1E1E1E" d="M29.499,50.979c-11.843,0-21.479-9.636-21.479-21.479S17.656,8.021,29.499,8.021
		c11.844,0,21.479,9.636,21.479,21.479S41.343,50.979,29.499,50.979z M29.499,10.538c-10.455,0-18.961,8.507-18.961,18.962
		s8.506,18.962,18.961,18.962c10.456,0,18.962-8.507,18.962-18.962S39.955,10.538,29.499,10.538z"/>
</g>
</svg>
