<?xml version="1.0" encoding="utf-8"?>
<!-- Generator: Adobe Illustrator 16.0.3, SVG Export Plug-In . SVG Version: 6.00 Build 0)  -->
<!DOCTYPE svg PUBLIC "-//W3C//DTD SVG 1.1//EN" "http://www.w3.org/Graphics/SVG/1.1/DTD/svg11.dtd">
<svg version="1.1" id="Layer_1" xmlns="http://www.w3.org/2000/svg" xmlns:xlink="http://www.w3.org/1999/xlink" x="0px" y="0px"
	 width="45px" height="45px" viewBox="0 0 45 45" enable-background="new 0 0 45 45" xml:space="preserve">
<path d="M39.318,45H5.682C2.549,45,0,42.451,0,39.318V5.682C0,2.549,2.549,0,5.682,0h33.636C42.451,0,45,2.549,45,5.682v33.637
	C45,42.451,42.451,45,39.318,45z M5.682,2.813c-1.583,0-2.87,1.287-2.87,2.869v33.637c0,1.582,1.287,2.869,2.87,2.869h33.636
	c1.582,0,2.869-1.287,2.869-2.869V5.682c0-1.582-1.287-2.869-2.869-2.869H5.682z"/>
</svg>
