<?xml version="1.0" encoding="utf-8"?>
<!-- Generator: Adobe Illustrator 16.0.3, SVG Export Plug-In . SVG Version: 6.00 Build 0)  -->
<!DOCTYPE svg PUBLIC "-//W3C//DTD SVG 1.1//EN" "http://www.w3.org/Graphics/SVG/1.1/DTD/svg11.dtd">
<svg version="1.1" id="Layer_1" xmlns="http://www.w3.org/2000/svg" xmlns:xlink="http://www.w3.org/1999/xlink" x="0px" y="0px"
	 width="45px" height="45px" viewBox="0 0 45 45" enable-background="new 0 0 45 45" xml:space="preserve">
<path d="M35.043,45H9.958C4.467,45,0,40.533,0,35.043V9.958C0,4.467,4.467,0,9.958,0h25.085C40.533,0,45,4.467,45,9.958v25.084
	C45,40.533,40.533,45,35.043,45z M9.958,2.813c-3.939,0-7.145,3.206-7.145,7.146v25.084c0,3.939,3.206,7.145,7.145,7.145h25.085
	c3.939,0,7.145-3.205,7.145-7.145V9.958c0-3.94-3.205-7.146-7.145-7.146H9.958z"/>
</svg>
