<?xml version="1.0" encoding="utf-8"?>
<!-- Generator: Adobe Illustrator 16.0.3, SVG Export Plug-In . SVG Version: 6.00 Build 0)  -->
<!DOCTYPE svg PUBLIC "-//W3C//DTD SVG 1.1//EN" "http://www.w3.org/Graphics/SVG/1.1/DTD/svg11.dtd">
<svg version="1.1" id="Layer_1" xmlns="http://www.w3.org/2000/svg" xmlns:xlink="http://www.w3.org/1999/xlink" x="0px" y="0px"
	 width="66px" height="64px" viewBox="0 0 66 64" enable-background="new 0 0 66 64" xml:space="preserve">
<path fill="#1E1E1E" d="M20.371,64c-2.753,0-5.314-0.804-7.408-2.325c-5.633-4.094-6.887-12.631-2.915-19.857
	c0.046-0.084,0.055-0.181,0.025-0.271c-0.03-0.094-0.097-0.169-0.184-0.21C2.432,37.825-1.572,30.183,0.579,23.56
	c1.798-5.534,7.582-9.252,14.394-9.252c1.192,0,2.401,0.115,3.593,0.342c0.134,0.012,0.205-0.018,0.264-0.06
	c0.079-0.058,0.129-0.142,0.141-0.238C20.004,6.171,26.036,0,33.001,0c6.963,0,12.995,6.171,14.029,14.353
	c0.012,0.096,0.062,0.18,0.14,0.236c0.06,0.043,0.132,0.066,0.205,0.066c1.252-0.232,2.46-0.348,3.651-0.348
	c6.812,0,12.597,3.717,14.396,9.249c2.149,6.625-1.854,14.27-9.314,17.782c-0.084,0.04-0.151,0.115-0.181,0.205
	c-0.03,0.092-0.021,0.188,0.025,0.272c3.974,7.229,2.721,15.766-2.914,19.858C50.943,63.196,48.382,64,45.629,64
	c-4.469,0-8.981-2.072-12.378-5.687c-0.134-0.142-0.372-0.137-0.5-0.002C29.354,61.927,24.843,64,20.371,64z M14.973,17.308
	c-5.508,0-10.146,2.885-11.54,7.178c-1.686,5.19,1.641,11.269,7.737,14.139c0.836,0.396,1.475,1.123,1.757,1.996
	c0.283,0.869,0.193,1.833-0.249,2.64c-3.245,5.908-2.364,12.78,2.049,15.987C16.305,60.395,18.256,61,20.371,61
	c3.646,0,7.361-1.729,10.192-4.741c0.628-0.67,1.517-1.056,2.438-1.056c0.919,0,1.808,0.386,2.438,1.058
	C38.269,59.271,41.984,61,45.629,61c2.115,0,4.067-0.606,5.646-1.753c4.414-3.206,5.295-10.079,2.049-15.985
	c-0.442-0.805-0.534-1.769-0.25-2.644c0.283-0.873,0.923-1.599,1.754-1.992c6.099-2.872,9.426-8.951,7.741-14.143
	c-1.396-4.292-6.034-7.176-11.542-7.176c-1.004,0-2.022,0.097-3.027,0.289c-0.933,0.175-1.849-0.041-2.592-0.581
	c-0.743-0.539-1.237-1.372-1.354-2.285C43.209,8.042,38.456,3,33.001,3c-5.457,0-10.21,5.042-11.055,11.729
	c-0.116,0.914-0.61,1.747-1.354,2.287c-0.731,0.532-1.684,0.753-2.587,0.58C16.997,17.404,15.978,17.308,14.973,17.308z"/>
</svg>
