<?xml version="1.0" encoding="utf-8"?>
<!-- Generator: Adobe Illustrator 16.0.0, SVG Export Plug-In . SVG Version: 6.00 Build 0)  -->
<!DOCTYPE svg PUBLIC "-//W3C//DTD SVG 1.1//EN" "http://www.w3.org/Graphics/SVG/1.1/DTD/svg11.dtd">
<svg version="1.1" id="Layer_1" xmlns="http://www.w3.org/2000/svg" xmlns:xlink="http://www.w3.org/1999/xlink" x="0px" y="0px"
	 width="59px" height="45px" viewBox="20.5 27.5 59 45" enable-background="new 20.5 27.5 59 45" xml:space="preserve">
<path fill="#6D767E" d="M50.001,27.96c-16.292,0-29.5,8.852-29.5,21.126c0,0-0.273,6.151,9.506,7.133
	c18.044,1.815,2.95,15.366,19.994,16.188c16.293,0,29.499-9.95,29.499-22.224C79.5,37.91,66.294,27.96,50.001,27.96z M32.566,47.664
	c-2.708,0-4.905-2.078-4.905-4.639c0-2.562,2.197-4.64,4.905-4.64c2.709,0,4.904,2.078,4.904,4.64
	C37.471,45.586,35.275,47.664,32.566,47.664z M45.512,41.362c-2.709,0-4.905-2.077-4.905-4.639c0-2.563,2.196-4.639,4.905-4.639
	s4.904,2.076,4.904,4.639C50.416,39.286,48.221,41.362,45.512,41.362z M60.521,33.916c2.708,0,4.904,2.078,4.904,4.64
	c0,2.563-2.196,4.639-4.904,4.639c-2.711,0-4.905-2.077-4.905-4.639C55.615,35.994,57.81,33.916,60.521,33.916z M61.322,65.307
	c-2.709,0-4.905-2.076-4.905-4.639s2.196-4.641,4.905-4.641s4.903,2.078,4.903,4.641S64.031,65.307,61.322,65.307z M69.685,53.735
	c-2.709,0-4.905-2.077-4.905-4.639c0-2.563,2.196-4.64,4.905-4.64s4.904,2.078,4.904,4.64
	C74.589,51.658,72.394,53.735,69.685,53.735z"/>
</svg>
