<?xml version="1.0" encoding="utf-8"?>
<!-- Generator: Adobe Illustrator 16.0.0, SVG Export Plug-In . SVG Version: 6.00 Build 0)  -->
<!DOCTYPE svg PUBLIC "-//W3C//DTD SVG 1.1//EN" "http://www.w3.org/Graphics/SVG/1.1/DTD/svg11.dtd">
<svg version="1.1" id="Layer_1" xmlns="http://www.w3.org/2000/svg" xmlns:xlink="http://www.w3.org/1999/xlink" x="0px" y="0px"
	 width="16px" height="9.3px" viewBox="17 20.35 16 9.3" enable-background="new 17 20.35 16 9.3" xml:space="preserve">
<g>
	<path fill="#212529" d="M23.543,27.224h-4.381l-0.911,2.255H17l3.755-9.117h1.263l3.746,9.117h-1.31L23.543,27.224z M23.123,26.166
		l-1.764-4.404l-1.775,4.404H23.123z"/>
	<path fill="#212529" d="M27.875,29.192c-0.491-0.297-0.876-0.706-1.156-1.228c-0.281-0.524-0.421-1.104-0.421-1.742
		s0.14-1.218,0.421-1.741c0.28-0.523,0.665-0.932,1.156-1.229c0.488-0.296,1.036-0.444,1.643-0.444c0.555,0,1.031,0.11,1.434,0.33
		c0.404,0.22,0.693,0.486,0.878,0.798v-0.969H33v6.511h-1.171v-0.968c-0.184,0.311-0.474,0.576-0.878,0.798
		c-0.402,0.218-0.879,0.33-1.434,0.33C28.911,29.638,28.363,29.488,27.875,29.192z M30.775,28.288
		c0.337-0.209,0.602-0.493,0.79-0.854c0.191-0.36,0.285-0.765,0.285-1.211c0-0.448-0.094-0.852-0.285-1.212
		c-0.188-0.36-0.453-0.645-0.79-0.854c-0.337-0.208-0.723-0.313-1.154-0.313c-0.427,0-0.804,0.102-1.134,0.307
		c-0.328,0.205-0.585,0.49-0.767,0.854c-0.184,0.364-0.273,0.77-0.273,1.218s0.09,0.852,0.273,1.218
		c0.182,0.365,0.438,0.648,0.767,0.853c0.33,0.204,0.707,0.309,1.134,0.309C30.053,28.603,30.438,28.496,30.775,28.288z"/>
</g>
</svg>
