<?xml version="1.0"?>
<svg width="348" height="819" xmlns="http://www.w3.org/2000/svg" xmlns:svg="http://www.w3.org/2000/svg" xmlns:xlink="http://www.w3.org/1999/xlink" enable-background="new 0 0 348 819" version="1.1" xml:space="preserve">
 <g class="layer">
  <title>Layer 1</title>
  <g id="svg_7">
   <image height="819.12" id="svg_1" overflow="visible" preserveAspectRatio="none" transform="matrix(1,0,0,1,0,0)" width="348" x="0" xlink:href="566C78E.png" y="0"/>
  </g>
  <path d="m161.98,629.17c2.05,-0.03 3.97,-1.03 5.17,-2.69c1.21,-1.66 1.56,-3.79 0.96,-5.75c-4.27,-13.91 -2.74,-27.58 -1.39,-34.66c7.14,0.89 20.54,3.63 32.52,12.04c1.68,1.18 3.82,1.5 5.77,0.87c1.95,-0.64 3.49,-2.15 4.15,-4.09c4.71,-13.76 13.98,-23.9 19.24,-28.85c5.26,4.95 14.52,15.1 19.24,28.85c0.66,1.94 2.2,3.45 4.15,4.09c1.95,0.63 4.09,0.31 5.77,-0.87c11.89,-8.36 25.35,-11.12 32.52,-12.03c1.35,7.1 2.88,20.75 -1.39,34.65c-0.61,1.96 -0.25,4.09 0.96,5.75c1.2,1.66 3.12,2.66 5.17,2.69c14.53,0.23 27.05,5.9 33.38,9.37c-3.08,6.55 -9.87,18.49 -21.49,27.22c-1.64,1.23 -2.6,3.16 -2.6,5.22s0.96,3.98 2.6,5.21c11.62,8.73 18.41,20.68 21.49,27.21c-6.34,3.48 -18.85,9.15 -33.38,9.39c-2.05,0.03 -3.97,1.03 -5.18,2.69c-1.2,1.66 -1.56,3.79 -0.95,5.75c4.27,13.89 2.74,27.55 1.39,34.64c-7.17,-0.9 -20.63,-3.67 -32.52,-12.03c-1.68,-1.19 -3.82,-1.5 -5.77,-0.86c-1.95,0.63 -3.49,2.14 -4.15,4.08c-4.72,13.77 -13.99,23.92 -19.25,28.87c-5.26,-4.92 -14.49,-15.02 -19.23,-28.87c-0.66,-1.93 -2.2,-3.45 -4.16,-4.08c-0.65,-0.22 -1.33,-0.32 -2.01,-0.32c-1.33,0 -2.64,0.4 -3.75,1.18c-11.91,8.36 -25.38,11.13 -32.54,12.04c-1.36,-7.07 -2.89,-20.67 1.41,-34.65c0.6,-1.96 0.25,-4.09 -0.95,-5.75c-1.21,-1.66 -3.13,-2.66 -5.18,-2.69c-14.54,-0.24 -27.05,-5.91 -33.38,-9.38c3.08,-6.54 9.86,-18.48 21.49,-27.22c1.64,-1.23 2.6,-3.16 2.6,-5.21s-0.96,-3.99 -2.6,-5.22c-11.63,-8.74 -18.42,-20.69 -21.5,-27.23c6.3,-3.47 18.75,-9.13 33.39,-9.36z" fill="#FEBF33" id="svg_8"/>
  <text fill="#C0202C" font-family="&#x27;KOTRA_BOLD-Bold&#x27;" font-size="64" id="svg_2" transform="matrix(1,0,0,1,0,0)" x="68.51" y="95.29">맛있게!</text>
  <text fill="#010101" font-family="&#x27;KOTRA_BOLD-Bold&#x27;" font-size="64" id="svg_4" transform="matrix(1,0,0,1,0,0)" x="36.39" y="178.91">건강하게!</text>
  <text fill="#C0202C" font-family="&#x27;KOTRA_BOLD-Bold&#x27;" font-size="64" id="svg_3" transform="matrix(1,0,0,1,0,0)" x="36.86" y="263.03">부담없게!</text>
  <text fill="#C0202C" font-family="&#x27;RecipekoreaM&#x27;" font-size="38" id="svg_5" transform="matrix(1,0,0,1,0,0)" x="166.3" y="699.93">3,500</text>
  <text fill="#C0202C" font-family="&#x27;RecipekoreaM&#x27;" font-size="28" id="svg_6" transform="matrix(1,0,0,1,0,0)" x="173.09" y="655.58">수제버거</text>
 </g>
</svg>